<?xml version="1.0" standalone="no"?>
<!DOCTYPE svg PUBLIC "-//W3C//DTD SVG 20010904//EN"
 "http://www.w3.org/TR/2001/REC-SVG-20010904/DTD/svg10.dtd">
<svg version="1.0" xmlns="http://www.w3.org/2000/svg"
 width="300.000000pt" height="426.000000pt" viewBox="0 0 300.000000 426.000000"
 preserveAspectRatio="xMidYMid meet">
<metadata>
Created by potrace 1.10, written by Peter Selinger 2001-2011
</metadata>
<g transform="translate(0.000000,426.000000) scale(0.100000,-0.100000)"
fill="#000000" stroke="none">
<path d="M1415 3578 c-3 -7 -33 -89 -69 -183 l-64 -170 -226 -3 -226 -2 0
-594 c0 -527 -2 -598 -16 -632 -27 -64 -254 -658 -251 -658 1 -1 118 0 260 2
l257 3 0 401 -1 400 368 -2 c304 -1 372 -3 390 -15 28 -19 123 -22 162 -5 21
8 31 20 33 38 3 27 -12 85 -25 98 -4 4 -7 16 -7 27 0 12 -16 35 -35 53 l-35
32 40 75 c117 217 79 455 -99 619 -72 66 -139 103 -233 127 -78 20 -79 22 -56
80 l10 26 15 -42 c12 -34 17 -40 28 -30 7 7 9 14 5 17 -4 3 -9 14 -11 24 -7
32 -35 43 -58 22 -16 -15 -21 -30 -19 -65 2 -63 -53 -204 -86 -219 -13 -6 -26
-22 -30 -36 -3 -14 -11 -38 -18 -53 -6 -15 -12 -30 -13 -33 -1 -3 -6 -16 -12
-30 -16 -35 -25 -62 -29 -81 -2 -9 -12 -36 -22 -60 -10 -24 -25 -65 -33 -91
-7 -27 -17 -48 -21 -48 -4 0 -8 -9 -8 -19 0 -11 -9 -40 -20 -65 -10 -25 -16
-46 -13 -46 4 0 2 -5 -5 -12 -14 -14 -16 -68 -3 -68 11 0 12 2 141 358 117
319 102 300 207 261 79 -30 143 -96 167 -172 14 -45 17 -81 14 -155 -3 -86 -7
-104 -34 -152 -17 -30 -50 -70 -73 -87 -71 -55 -122 -65 -361 -72 -118 -4
-217 -6 -220 -5 -3 1 -4 153 -2 338 l3 336 60 0 c54 0 60 -2 54 -17 -27 -65
-95 -247 -95 -255 0 -23 34 20 57 72 13 30 28 64 33 75 24 55 29 83 18 112
-12 35 45 175 91 222 20 21 43 58 51 82 7 24 17 48 22 54 4 5 8 17 8 27 0 10
4 26 9 36 16 29 36 87 33 94 -1 4 8 14 21 22 16 11 54 15 137 16 161 1 178 -4
182 -52 1 -15 6 -24 10 -22 4 3 8 -6 8 -20 0 -14 5 -28 10 -31 6 -3 10 -17 10
-30 0 -13 5 -27 10 -30 6 -3 10 -13 10 -20 0 -8 11 -38 24 -67 13 -29 36 -82
49 -118 14 -36 43 -101 64 -145 62 -126 100 -233 140 -403 3 -12 9 -25 14 -28
5 -3 9 -16 9 -29 0 -13 5 -27 10 -30 6 -3 10 -17 10 -31 0 -13 4 -24 9 -24 8
0 37 -89 33 -102 -1 -5 2 -8 7 -8 5 0 18 -28 31 -62 12 -35 26 -71 31 -80 5
-10 9 -27 9 -38 0 -11 5 -20 10 -20 6 0 10 -6 10 -13 0 -13 62 -177 78 -207 5
-8 17 -43 28 -77 10 -35 22 -63 27 -63 4 0 7 -10 7 -23 0 -13 4 -27 8 -33 5
-5 15 -29 22 -54 8 -25 16 -49 20 -55 4 -5 13 -30 20 -55 7 -25 19 -52 25 -60
6 -8 20 -40 30 -71 17 -52 17 -58 3 -73 -9 -8 -18 -12 -22 -9 -11 11 -110 11
-123 0 -9 -6 -13 -6 -13 2 0 6 -7 11 -16 11 -8 0 -12 -4 -9 -10 3 -5 1 -10 -4
-10 -6 0 -11 5 -11 10 0 6 -9 10 -20 10 -15 0 -20 7 -20 24 0 14 -4 27 -9 31
-6 3 -8 14 -6 25 2 11 0 22 -4 25 -5 2 -18 37 -30 77 -13 40 -27 81 -32 90 -5
10 -9 24 -9 32 0 8 -6 27 -14 43 -8 15 -22 53 -32 83 -19 60 -39 98 -63 118
-16 13 -59 16 -85 6 -28 -11 -6 -24 38 -24 l42 0 17 -52 c9 -29 54 -158 100
-286 l83 -233 157 -2 c108 -1 157 1 155 9 -2 6 -194 513 -428 1127 l-425 1117
-173 0 c-129 0 -174 -3 -177 -12z m-195 -419 c0 -6 -10 -33 -21 -60 -21 -47
-23 -49 -63 -49 -22 0 -48 -6 -57 -13 -38 -29 -40 -46 -33 -377 7 -299 8 -321
27 -337 16 -15 44 -18 194 -21 255 -5 348 16 437 99 25 22 58 67 73 98 26 52
28 65 28 176 0 105 -3 127 -24 172 -13 29 -45 72 -72 98 -44 41 -64 53 -143
84 -31 13 -31 26 0 99 14 34 15 35 64 29 120 -14 268 -131 328 -260 71 -149
67 -280 -11 -437 -36 -74 -94 -136 -152 -165 -86 -43 -97 -54 -90 -91 l6 -34
-314 0 c-294 0 -315 -1 -331 -19 -15 -16 -18 -61 -24 -392 l-7 -374 -79 -3
c-57 -2 -82 1 -87 10 -8 12 -1 1740 7 1766 5 16 344 18 344 1z m758 -913 c18
-48 32 -92 32 -97 0 -5 -36 -9 -80 -9 -76 0 -84 2 -131 35 -28 19 -57 35 -65
35 -28 0 -13 18 20 24 35 7 141 70 165 100 19 22 22 17 59 -88z m-1148 -576
l0 -320 -27 7 c-16 4 -60 7 -100 6 -59 -1 -73 2 -78 16 -5 18 36 141 60 178 8
12 12 29 9 37 -3 9 -2 16 3 16 5 0 22 39 38 88 16 48 32 89 36 92 3 3 9 19 12
35 10 55 39 165 43 165 2 0 4 -144 4 -320z"/>
<path d="M1146 1940 c-22 -3 -41 -11 -44 -17 -3 -10 67 -13 315 -15 l318 -3
140 -282 140 -281 138 -1 137 -1 -142 283 -143 282 -123 3 c-93 2 -130 7 -148
19 -20 13 -65 16 -287 17 -144 0 -280 -1 -301 -4z m838 -82 c33 -52 234 -464
229 -470 -2 -5 -39 -8 -82 -8 -62 0 -81 4 -94 18 -22 24 -236 465 -230 475 2
4 40 7 83 7 72 0 81 -2 94 -22z"/>
</g>
</svg>
